<svg width="400" height="202" viewBox="0 0 400 202" fill="none" xmlns="http://www.w3.org/2000/svg">
<path fill-rule="evenodd" clip-rule="evenodd" d="M0 9.754V19.507H13.172C20.417 19.507 26.345 19.58 26.345 19.668C26.345 19.757 26.879 19.939 27.531 20.074C28.212 20.215 28.767 20.446 28.832 20.617C28.895 20.781 29.052 20.915 29.181 20.915C29.509 20.915 30.267 21.771 30.594 22.509C30.744 22.849 30.932 23.127 31.01 23.127C31.199 23.127 31.571 24.491 31.573 25.189C31.573 25.493 31.664 25.742 31.775 25.742C31.908 25.742 31.976 34.974 31.976 53.036C31.976 78.733 32.115 86.757 32.565 87.079C32.643 87.134 32.86 88.213 33.049 89.477C33.238 90.74 33.472 91.872 33.57 91.991C33.668 92.11 33.859 92.773 33.994 93.464C34.13 94.155 34.305 94.721 34.383 94.721C34.462 94.721 34.645 95.219 34.791 95.827C34.937 96.435 35.114 96.933 35.184 96.933C35.254 96.933 35.42 97.34 35.553 97.838C35.686 98.336 35.879 98.743 35.981 98.743C36.083 98.743 36.231 99.037 36.308 99.397C36.439 100.006 37.323 101.735 37.618 101.961C37.691 102.016 37.858 102.395 37.991 102.802C38.124 103.21 38.298 103.572 38.377 103.607C38.456 103.642 38.814 104.123 39.171 104.676C40.264 106.365 40.308 106.427 40.768 106.939C41.013 107.212 41.265 107.598 41.329 107.797C41.392 107.995 41.575 108.209 41.737 108.271C41.899 108.333 42.032 108.5 42.033 108.641C42.034 108.783 42.395 109.216 42.836 109.603C43.276 109.99 43.638 110.397 43.641 110.508C43.646 110.72 47.132 114.167 48.726 115.535C49.673 116.349 49.933 116.555 51.383 117.639C51.825 117.97 52.33 118.379 52.506 118.547C52.681 118.716 52.919 118.854 53.034 118.854C53.149 118.854 53.35 118.981 53.479 119.137C53.608 119.293 54.026 119.568 54.408 119.75C54.79 119.931 55.103 120.149 55.103 120.233C55.103 120.318 55.42 120.512 55.807 120.664C56.194 120.816 56.511 121.002 56.511 121.079C56.511 121.156 56.782 121.331 57.114 121.468C57.446 121.606 57.717 121.781 57.717 121.857C57.717 121.934 58.034 122.121 58.421 122.272C58.808 122.424 59.125 122.615 59.125 122.697C59.125 122.778 59.465 122.955 59.879 123.09C60.294 123.226 60.684 123.413 60.746 123.508C60.925 123.782 64.277 125.441 64.949 125.589C65.285 125.663 65.561 125.807 65.561 125.909C65.561 126.011 65.968 126.204 66.466 126.337C66.963 126.47 67.371 126.641 67.371 126.716C67.371 126.792 67.778 126.974 68.276 127.121C68.773 127.268 69.18 127.45 69.18 127.525C69.18 127.601 69.633 127.771 70.186 127.903C70.739 128.036 71.192 128.219 71.192 128.31C71.192 128.401 71.486 128.538 71.845 128.614C72.205 128.691 72.861 128.916 73.303 129.115C73.746 129.313 74.447 129.539 74.862 129.617C75.277 129.695 75.616 129.824 75.616 129.905C75.616 129.986 76.136 130.167 76.772 130.307C77.408 130.448 78.023 130.638 78.138 130.731C78.253 130.824 78.796 130.996 79.345 131.114C79.893 131.233 80.523 131.408 80.744 131.505C81.336 131.763 82.623 132.081 83.71 132.236C84.236 132.312 84.666 132.443 84.666 132.527C84.666 132.612 85.39 132.793 86.275 132.931C87.159 133.069 87.883 133.251 87.883 133.337C87.883 133.423 88.653 133.607 89.593 133.747C90.533 133.887 91.302 134.063 91.302 134.138C91.302 134.213 92.207 134.394 93.313 134.54C94.419 134.686 95.324 134.868 95.324 134.944C95.324 135.019 96.252 135.193 97.386 135.331C98.519 135.468 99.539 135.657 99.652 135.75C99.764 135.843 101.009 136.031 102.417 136.168C103.825 136.304 104.977 136.48 104.977 136.558C104.977 136.636 106.312 136.817 107.944 136.961C109.575 137.104 110.955 137.287 111.011 137.369C111.066 137.45 112.831 137.632 114.932 137.774C117.034 137.917 118.798 138.093 118.854 138.166C118.962 138.309 126.732 138.771 128.943 138.766C129.68 138.765 130.314 138.855 130.351 138.968C130.395 139.1 133.91 139.218 140.323 139.302L150.226 139.432L150.221 155.639C150.216 170.738 150.079 175.675 149.656 175.955C149.561 176.017 149.428 176.295 149.361 176.571C149.214 177.168 148.782 177.765 147.777 178.757C146.714 179.806 146.57 179.905 145.69 180.189C145.254 180.329 144.77 180.546 144.615 180.67C144.415 180.829 140.508 180.912 131.191 180.952L118.049 181.009V190.957V200.905H239.904C358.241 200.905 367.655 200.862 368.022 200.32C368.078 200.236 368.938 200.056 369.932 199.919C370.925 199.782 371.785 199.595 371.842 199.503C371.899 199.411 372.511 199.225 373.203 199.089C373.894 198.953 374.46 198.777 374.46 198.699C374.46 198.62 374.957 198.437 375.566 198.291C376.174 198.145 376.672 197.96 376.672 197.88C376.672 197.8 377.079 197.632 377.577 197.507C378.074 197.382 378.482 197.204 378.482 197.113C378.482 197.021 378.844 196.838 379.286 196.706C379.729 196.573 380.09 196.392 380.09 196.303C380.09 196.215 380.443 196.036 380.874 195.907C381.305 195.778 381.706 195.546 381.765 195.392C381.825 195.237 382.157 195.049 382.504 194.972C382.851 194.896 383.183 194.707 383.243 194.551C383.302 194.396 383.447 194.268 383.563 194.268C384.037 194.268 387.445 191.508 389.419 189.526C391.543 187.393 392.157 186.706 392.157 186.462C392.157 186.339 392.338 186.142 392.559 186.023C392.78 185.905 392.961 185.672 392.961 185.507C392.961 185.341 393.086 185.158 393.238 185.1C393.39 185.042 393.675 184.637 393.872 184.201C394.068 183.765 394.289 183.409 394.362 183.409C394.435 183.409 394.619 183.092 394.771 182.705C394.923 182.318 395.117 182.001 395.203 182.001C395.288 182.001 395.467 181.639 395.599 181.197C395.732 180.754 395.913 180.392 396.002 180.392C396.09 180.392 396.271 180.03 396.404 179.588C396.536 179.145 396.701 178.783 396.77 178.783C396.839 178.783 397.022 178.355 397.176 177.832C397.331 177.309 397.574 176.656 397.717 176.38C397.861 176.104 398.038 175.468 398.112 174.968C398.186 174.467 398.32 174.009 398.41 173.951C398.5 173.892 398.685 172.987 398.822 171.94C398.958 170.892 399.164 169.972 399.279 169.895C399.57 169.699 399.575 159.917 399.284 159.721C399.166 159.642 398.958 158.721 398.822 157.673C398.685 156.626 398.502 155.721 398.415 155.662C398.329 155.603 398.14 154.99 397.995 154.299C397.851 153.607 397.669 153.042 397.591 153.042C397.513 153.042 397.338 152.544 397.202 151.936C397.066 151.327 396.881 150.83 396.79 150.83C396.7 150.83 396.567 150.516 396.495 150.132C396.423 149.749 396.246 149.316 396.101 149.171C395.956 149.026 395.726 148.571 395.59 148.159C395.455 147.748 395.277 147.411 395.195 147.411C395.114 147.411 394.923 147.094 394.771 146.707C394.619 146.32 394.438 146.003 394.369 146.003C394.299 146.003 394.089 145.682 393.902 145.289C393.562 144.577 393.377 144.31 392.71 143.575C392.516 143.362 392.358 143.098 392.358 142.988C392.358 142.878 392.177 142.676 391.956 142.538C391.735 142.399 391.554 142.178 391.554 142.047C391.554 141.777 386.609 136.752 386.344 136.752C386.251 136.752 385.836 136.442 385.422 136.063C385.008 135.684 384.409 135.266 384.09 135.134C383.77 135.002 383.509 134.825 383.509 134.741C383.509 134.657 383.238 134.476 382.906 134.339C382.574 134.201 382.303 134.015 382.303 133.925C382.303 133.835 381.986 133.647 381.599 133.507C381.212 133.367 380.895 133.184 380.895 133.1C380.895 133.016 380.533 132.839 380.09 132.706C379.648 132.574 379.286 132.393 379.286 132.304C379.286 132.215 378.924 132.034 378.482 131.902C378.039 131.769 377.677 131.604 377.677 131.535C377.677 131.466 377.247 131.285 376.722 131.132C376.197 130.979 375.721 130.787 375.666 130.704C375.61 130.622 374.976 130.436 374.258 130.291C373.539 130.147 372.906 129.973 372.851 129.905C372.716 129.739 370.517 129.311 369.801 129.311C369.487 129.311 369.231 129.221 369.231 129.11C369.231 128.999 368.909 128.909 368.515 128.909C368.089 128.909 367.85 128.828 367.924 128.708C367.992 128.597 368.359 128.507 368.74 128.507C369.12 128.507 369.432 128.435 369.432 128.347C369.432 128.259 370.173 128.079 371.078 127.947C371.983 127.815 372.775 127.628 372.837 127.531C372.9 127.435 373.38 127.293 373.904 127.216C374.428 127.138 374.974 126.958 375.117 126.815C375.26 126.672 375.849 126.435 376.426 126.287C377.004 126.139 377.476 125.962 377.476 125.895C377.476 125.827 377.815 125.651 378.23 125.502C378.645 125.354 379.03 125.177 379.085 125.11C379.14 125.043 379.502 124.824 379.889 124.625C381.319 123.89 381.699 123.655 381.699 123.506C381.699 123.422 382.012 123.23 382.395 123.08C382.777 122.93 383.137 122.687 383.193 122.54C383.249 122.393 383.431 122.272 383.596 122.272C383.762 122.272 383.994 122.092 384.113 121.87C384.231 121.649 384.426 121.468 384.545 121.468C384.945 121.468 389.941 116.534 389.943 116.137C389.944 116.025 390.126 115.821 390.347 115.683C390.568 115.545 390.749 115.297 390.749 115.132C390.749 114.967 390.824 114.832 390.916 114.832C391.121 114.832 392.358 112.952 392.358 112.642C392.358 112.519 392.443 112.418 392.546 112.418C392.65 112.418 392.849 112.102 392.989 111.714C393.129 111.327 393.308 111.011 393.388 111.011C393.467 111.011 393.683 110.558 393.866 110.005C394.05 109.452 394.274 108.999 394.365 108.999C394.456 108.999 394.639 108.547 394.771 107.994C394.904 107.441 395.085 106.988 395.173 106.988C395.262 106.988 395.446 106.513 395.582 105.933C395.718 105.352 395.899 104.786 395.984 104.676C396.07 104.565 396.257 103.751 396.402 102.866C396.546 101.981 396.732 101.209 396.815 101.15C397.374 100.754 397.37 88.892 396.81 88.489C396.731 88.433 396.554 87.711 396.416 86.886C396.278 86.06 396.095 85.336 396.009 85.277C395.923 85.217 395.738 84.648 395.599 84.012C395.46 83.376 395.272 82.856 395.181 82.856C395.091 82.856 394.958 82.542 394.886 82.158C394.814 81.775 394.64 81.345 394.499 81.203C394.358 81.061 394.072 80.47 393.864 79.889C393.656 79.309 393.413 78.834 393.324 78.834C393.235 78.834 393.161 78.72 393.159 78.582C393.157 78.444 392.884 77.924 392.553 77.426C392.221 76.928 391.838 76.352 391.701 76.146C390.092 73.72 386.836 70.38 384.421 68.678C384.107 68.457 383.697 68.131 383.509 67.954C383.321 67.777 382.882 67.506 382.534 67.352C382.186 67.197 381.9 67.014 381.9 66.944C381.9 66.873 381.629 66.704 381.297 66.566C380.965 66.429 380.694 66.251 380.694 66.172C380.694 66.092 380.332 65.908 379.889 65.762C379.447 65.616 379.085 65.435 379.085 65.359C379.085 65.284 378.723 65.103 378.281 64.957C377.838 64.811 377.476 64.626 377.476 64.545C377.476 64.464 377.069 64.278 376.571 64.131C376.073 63.984 375.666 63.81 375.666 63.745C375.666 63.679 375.191 63.506 374.61 63.361C374.03 63.215 373.464 63.025 373.353 62.938C373.243 62.852 372.564 62.663 371.845 62.518C371.126 62.374 370.49 62.19 370.432 62.109C370.374 62.028 369.469 61.861 368.421 61.738C367.373 61.615 366.335 61.407 366.114 61.275C365.807 61.092 355.952 61.022 324.53 60.979L283.348 60.921L283.404 43.08L283.459 25.239L283.95 23.932C284.22 23.213 284.548 22.559 284.678 22.478C284.808 22.398 285.022 22.074 285.153 21.758C285.3 21.402 285.655 21.079 286.084 20.911C286.465 20.761 286.777 20.583 286.777 20.516C286.777 20.323 288.055 19.91 288.652 19.91C288.948 19.91 289.191 19.819 289.191 19.708C289.191 19.576 293.682 19.507 302.262 19.507H315.334V9.754V0H264.153H212.971V9.754V19.507H226.144C233.389 19.507 239.316 19.579 239.316 19.667C239.316 19.755 239.812 19.931 240.419 20.058C241.025 20.185 241.636 20.384 241.776 20.5C243.102 21.597 243.539 22.034 243.539 22.259C243.539 22.405 243.612 22.524 243.7 22.524C243.789 22.524 243.982 22.863 244.131 23.278C244.279 23.693 244.501 24.097 244.624 24.176C244.784 24.278 244.863 29.499 244.904 42.627L244.961 60.935H181.606H118.25V70.99V81.046L130.568 81.049C143.42 81.053 145.133 81.152 145.922 81.941C146.093 82.112 146.316 82.252 146.417 82.252C146.824 82.252 148.208 83.393 148.43 83.912C148.56 84.216 148.739 84.465 148.827 84.465C148.916 84.465 149.099 84.804 149.234 85.219C149.369 85.633 149.558 86.024 149.654 86.086C150.072 86.36 150.216 91.16 150.221 105.028L150.226 119.859H149.504C147.124 119.859 137.843 119.398 137.759 119.275C137.703 119.194 136.301 119.015 134.644 118.876C132.987 118.738 131.584 118.557 131.527 118.473C131.47 118.389 130.495 118.199 129.361 118.052C128.228 117.904 127.3 117.718 127.3 117.639C127.3 117.56 126.576 117.382 125.691 117.245C124.806 117.107 124.082 116.932 124.082 116.855C124.082 116.778 123.493 116.598 122.773 116.455C122.053 116.312 121.424 116.13 121.375 116.05C121.326 115.971 120.784 115.785 120.17 115.638C119.557 115.491 119.055 115.309 119.055 115.234C119.055 115.159 118.557 114.978 117.949 114.832C117.34 114.686 116.843 114.494 116.843 114.405C116.843 114.317 116.481 114.136 116.038 114.003C115.596 113.871 115.234 113.698 115.234 113.619C115.234 113.541 114.827 113.362 114.329 113.223C113.831 113.083 113.424 112.892 113.424 112.797C113.424 112.702 113.13 112.493 112.77 112.331C112.113 112.036 110.997 111.399 110.809 111.212C110.572 110.974 108.774 109.804 108.642 109.8C108.562 109.799 108.284 109.572 108.023 109.298C107.763 109.023 107.478 108.798 107.39 108.798C106.967 108.798 102.564 104.048 102.564 103.591C102.564 103.48 102.448 103.316 102.305 103.228C102.162 103.139 101.758 102.614 101.405 102.061C101.053 101.508 100.684 100.959 100.585 100.841C100.485 100.723 100.284 100.293 100.137 99.886C99.989 99.479 99.811 99.145 99.74 99.145C99.67 99.145 99.492 98.783 99.346 98.341C99.2 97.898 99.019 97.536 98.944 97.536C98.869 97.536 98.688 97.039 98.542 96.43C98.396 95.822 98.213 95.324 98.135 95.324C98.057 95.324 97.878 94.781 97.738 94.118C97.597 93.454 97.413 92.911 97.329 92.911C97.245 92.911 97.06 92.119 96.919 91.151C96.777 90.184 96.598 89.346 96.52 89.291C96.327 89.154 95.928 84.905 95.928 82.996C95.928 82.098 95.843 81.448 95.726 81.448C95.593 81.448 95.525 72.197 95.525 54.098C95.525 35.998 95.593 26.747 95.726 26.747C95.837 26.747 95.928 26.437 95.928 26.059C95.928 25.198 96.349 23.328 96.544 23.328C96.623 23.328 96.743 23.109 96.811 22.841C96.935 22.347 98.454 20.714 98.789 20.714C98.89 20.714 99.103 20.584 99.263 20.424C99.422 20.265 99.96 20.073 100.457 19.999C100.955 19.924 101.412 19.783 101.472 19.685C101.534 19.585 107.331 19.507 114.743 19.507H127.903V9.754V0H63.952H0V9.754ZM244.917 88.695C244.869 93.901 244.777 96.39 244.628 96.488C244.508 96.567 244.292 97.333 244.147 98.19C244.003 99.047 243.824 99.749 243.75 99.749C243.676 99.749 243.494 100.224 243.346 100.804C243.198 101.385 242.964 102.041 242.825 102.262C242.687 102.484 242.512 102.959 242.437 103.318C242.362 103.678 242.221 103.972 242.124 103.972C242.026 103.972 241.838 104.334 241.706 104.776C241.573 105.219 241.384 105.581 241.285 105.581C241.186 105.581 241.011 105.852 240.895 106.184C240.779 106.516 240.614 106.787 240.528 106.787C240.441 106.787 240.258 107.059 240.121 107.391C239.983 107.722 239.788 107.994 239.688 107.994C239.587 107.994 239.449 108.152 239.381 108.346C239.128 109.069 234.4 113.826 233.935 113.826C233.874 113.826 233.527 114.052 233.165 114.329C232.802 114.605 232.406 114.832 232.285 114.832C232.163 114.832 232.017 114.954 231.959 115.105C231.901 115.255 231.497 115.495 231.06 115.639C230.624 115.784 230.266 115.963 230.266 116.038C230.266 116.113 229.904 116.294 229.462 116.44C229.02 116.586 228.658 116.774 228.658 116.856C228.658 116.939 228.205 117.123 227.652 117.264C227.099 117.406 226.647 117.583 226.647 117.658C226.647 117.732 226.104 117.908 225.44 118.049C224.776 118.19 224.233 118.37 224.233 118.45C224.233 118.529 223.396 118.713 222.373 118.857C221.35 119.002 220.466 119.19 220.408 119.276C220.327 119.396 214.947 119.859 213.628 119.859C213.424 119.859 213.374 115.983 213.374 100.452V81.046H229.18H244.987L244.917 88.695ZM330.104 81.35C331.204 81.515 332.154 81.726 332.216 81.818C332.277 81.91 332.758 82.111 333.283 82.263C333.808 82.416 334.238 82.605 334.238 82.683C334.238 82.76 334.516 82.885 334.855 82.959C335.195 83.034 335.521 83.222 335.581 83.377C335.64 83.533 335.798 83.66 335.93 83.66C336.063 83.66 336.447 83.864 336.784 84.113C337.122 84.361 337.65 84.746 337.959 84.967C338.767 85.545 341.277 88.046 341.277 88.273C341.277 88.378 341.442 88.582 341.644 88.727C341.845 88.871 342.139 89.284 342.296 89.643C342.453 90.003 342.643 90.297 342.717 90.297C342.841 90.297 343.593 91.784 344.343 93.514C344.511 93.901 344.712 94.58 344.791 95.022C344.87 95.464 345.039 95.891 345.167 95.97C345.483 96.166 345.494 103.991 345.178 104.393C345.057 104.549 344.841 105.241 344.698 105.933C344.556 106.624 344.363 107.19 344.269 107.19C344.175 107.19 343.996 107.597 343.87 108.095C343.745 108.592 343.563 108.999 343.465 108.999C343.368 108.999 343.288 109.096 343.288 109.215C343.288 109.441 342.185 111.124 341.739 111.578C341.596 111.724 341.478 111.914 341.478 112.001C341.478 112.348 338.405 115.281 337.247 116.038C336.994 116.204 336.631 116.488 336.441 116.669C336.25 116.849 335.768 117.105 335.368 117.237C334.968 117.369 334.641 117.552 334.641 117.644C334.641 117.736 334.188 117.927 333.635 118.069C333.082 118.21 332.629 118.39 332.629 118.467C332.629 118.544 332.019 118.721 331.272 118.86C330.525 119 329.85 119.213 329.771 119.336C329.668 119.496 321.024 119.57 298.801 119.602L267.974 119.646L268.966 118.797C270.312 117.645 273.906 114.027 273.906 113.824C273.906 113.733 274.222 113.312 274.609 112.888C275.638 111.757 275.786 111.562 276.118 110.904C276.284 110.575 276.533 110.234 276.671 110.146C276.81 110.057 276.923 109.858 276.923 109.703C276.923 109.548 277.036 109.349 277.175 109.261C277.313 109.172 277.562 108.829 277.728 108.497C277.893 108.165 278.079 107.848 278.141 107.793C278.355 107.601 280.342 103.45 280.342 103.195C280.342 103.053 280.467 102.813 280.619 102.66C280.772 102.508 280.961 102.039 281.04 101.619C281.119 101.199 281.261 100.807 281.356 100.749C281.452 100.69 281.645 100.033 281.786 99.29C281.927 98.547 282.103 97.939 282.177 97.939C282.251 97.939 282.422 97.147 282.557 96.179C282.692 95.211 282.902 94.296 283.024 94.144C283.171 93.962 283.273 91.707 283.326 87.458L283.407 81.046L305.756 81.047C324.585 81.048 328.419 81.096 330.104 81.35ZM328.162 139.685C328.241 139.805 328.982 140.012 329.808 140.146C330.634 140.281 331.358 140.462 331.417 140.549C331.475 140.637 331.953 140.833 332.479 140.986C333.004 141.139 333.434 141.328 333.434 141.406C333.434 141.483 333.692 141.603 334.008 141.673C334.324 141.742 334.754 141.931 334.963 142.093C335.173 142.255 335.788 142.676 336.33 143.028C336.872 143.38 337.596 143.927 337.939 144.245C338.282 144.562 338.799 144.964 339.088 145.138C339.377 145.312 339.754 145.691 339.925 145.98C340.096 146.269 340.513 146.777 340.852 147.109C341.19 147.441 341.469 147.828 341.473 147.97C341.476 148.112 341.598 148.274 341.746 148.33C341.893 148.387 342.136 148.746 342.286 149.129C342.436 149.511 342.621 149.824 342.698 149.824C342.774 149.824 342.95 150.096 343.087 150.427C343.224 150.759 343.407 151.031 343.494 151.031C343.58 151.031 343.759 151.483 343.891 152.036C344.024 152.589 344.202 153.042 344.286 153.042C344.371 153.042 344.558 153.607 344.702 154.299C344.847 154.99 345.035 155.603 345.12 155.661C345.639 156.012 345.64 164.35 345.122 164.7C345.036 164.759 344.847 165.372 344.702 166.063C344.558 166.755 344.371 167.32 344.286 167.32C344.202 167.32 344.024 167.773 343.891 168.326C343.759 168.879 343.578 169.331 343.489 169.331C343.4 169.331 343.223 169.58 343.095 169.884C342.669 170.899 342.098 171.82 341.786 171.994C341.617 172.089 341.478 172.263 341.478 172.38C341.478 172.858 337.563 176.754 336.802 177.033C336.609 177.104 336.45 177.238 336.45 177.332C336.45 177.425 336.134 177.626 335.747 177.778C335.359 177.93 335.043 178.121 335.043 178.202C335.043 178.283 334.706 178.461 334.294 178.597C333.882 178.733 333.427 178.963 333.282 179.107C333.137 179.252 332.705 179.43 332.321 179.502C331.938 179.574 331.624 179.705 331.624 179.793C331.624 179.881 330.968 180.068 330.166 180.209C329.364 180.35 328.643 180.562 328.564 180.68C328.463 180.831 311.457 180.911 270.897 180.948L213.374 181.002V160.18V139.359L270.696 139.413C311.549 139.452 328.06 139.53 328.162 139.685Z" fill="white"/>
</svg>
